<svg xmlns="http://www.w3.org/2000/svg" xmlns:xlink="http://www.w3.org/1999/xlink" aria-hidden="true" role="img" class="iconify iconify--logos" width="31.88" height="32" preserveAspectRatio="xMidYMid meet" viewBox="0 0 256 257"><defs><linearGradient id="IconifyId1813088fe1fbc01fb466" x1="-.828%" x2="57.636%" y1="7.652%" y2="78.411%"><stop offset="0" stop-color="#41D1FF"/><stop offset="1" stop-color="#BD34FE"/></linearGradient><linearGradient id="IconifyId1813088fe1fbc01fb467" x1="43.376%" x2="50.316%" y1="2.242%" y2="89.03%"><stop offset="0" stop-color="#FFEA83"/><stop offset=".083" stop-color="#FFDD35"/><stop offset="1" stop-color="#FFA800"/></linearGradient></defs><path fill="url(#IconifyId1813088fe1fbc01fb466)" d="M255.153 37.938L134.897 252.976c-2.483 4.44-8.862 4.466-11.382.048L.875 37.958c-2.746-4.814 1.371-10.646 6.827-9.67l120.385 21.517a6.537 6.537 0 007.991-4.87l10.533-42.39c1.314-5.29 7.835-6.588 11.375-2.273l24.338 30.473c2.922 3.655 8.203 3.65 11.118-.011l15.132-19.059c3.826-4.82 11.171-2.61 11.824 3.58l14.366 122.19c.617 5.24-4.456 9.394-9.542 7.893L229.788 141.8a6.537 6.537 0 00-8.146 4.835l-7.01 35.519c-1.114 5.65-8.624 6.406-10.831 1.09L255.153 37.938z"/><path fill="url(#IconifyId1813088fe1fbc01fb467)" d="M185.432.063L96.44 17.501a3.268 3.268 0 00-2.634 3.014l-5.474 92.456a3.268 3.268 0 003.997 3.378l24.777-5.718c2.318-.535 4.413 1.507 3.936 3.838l-7.361 36.047c-.495 2.426 1.782 4.5 4.151 3.78l15.906-4.828c2.372-.72 4.652 1.36 4.15 3.788l-12.094 59.017c-1.026 5.008 5.412 7.698 8.053 3.469l54.87-97.54a3.268 3.268 0 00-2.833-4.935l-25.512.956c-2.383.09-3.578-2.82-1.97-4.62l38.165-43.556c1.67-1.906.11-4.856-2.436-4.39l-32.9 6.138c-2.41.451-4.252-2.086-3.274-4.29l20.334-47.014a3.268 3.268 0 00-2.95-4.574z"/></svg>
